<mxfile host="app.diagrams.net" modified="2023-11-16T09:21:53.437Z" agent="Mozilla/5.0 (Macintosh; Intel Mac OS X 10_15_7) AppleWebKit/537.36 (KHTML, like Gecko) Chrome/117.0.0.0 Safari/537.36" version="22.1.2" etag="L5nilV7VTXAXb66ol52W" type="github">
  <diagram name="第 1 页" id="YwqgAnbq2SPbKb8AhcRr">
    <mxGraphModel>
      <root>
        <mxCell id="0" />
        <mxCell id="1" parent="0" />
      </root>
    </mxGraphModel>
  </diagram>
</mxfile>
